<svg aria-hidden="true" style="position:absolute;width:0;height:0;overflow:hidden" xmlns="http://www.w3.org/2000/svg"><defs><symbol id="icon-search" viewBox="0 0 32 32"><path fill="#fdfdfd" style="fill:var(--color1, #fdfdfd)" d="M13.474 26.947a13.336 13.336 0 0 0 8.276-2.865l-.029.022 7.404 7.404 2.381-2.381-7.404-7.404a13.306 13.306 0 0 0 2.845-8.249C26.947 6.045 20.902 0 13.473 0S-.001 6.045-.001 13.474s6.045 13.474 13.474 13.474zm0-23.579c5.573 0 10.105 4.532 10.105 10.105s-4.532 10.105-10.105 10.105S3.369 19.046 3.369 13.473 7.901 3.368 13.474 3.368z"/></symbol><symbol id="icon-menu" viewBox="0 0 33 32"><path fill="none" stroke="#a76e00" style="stroke:var(--color2, #a76e00)" stroke-width=".8" d="M3.2.4h26.134a2.8 2.8 0 0 1 2.8 2.8v25.6a2.8 2.8 0 0 1-2.8 2.8H3.2a2.8 2.8 0 0 1-2.8-2.8V3.2A2.8 2.8 0 0 1 3.2.4z"/><path fill="none" stroke="#a76e00" style="stroke:var(--color2, #a76e00)" stroke-linecap="round" stroke-width="1.6" d="M6.933 8h18.666M6.4 12.534h19.734M6.4 23.2h19.734M6.4 17.866h19.734"/></symbol></defs></svg>