<svg aria-hidden="true" style="position:absolute;width:0;height:0;overflow:hidden" xmlns="http://www.w3.org/2000/svg"><defs>
<symbol id="icon-youtube-square-svgrepo-com" viewBox="0 0 32 32">
<path d="M15.8 12c.4 0 .6-.4.6-1V8.2c0-.6-.2-1-.6-1s-.6.4-.6 1V11c0 .6.2 1 .6 1zM14.2 23.8c-.2.4-.6.6-.8.6s-.2 0-.2-.2v-5.4H12V24c0 .4 0 .8.2 1 .2.4.4.4.8.4s.8-.2 1.4-.8v.8h1.2v-6.6h-1.4v5zM7.6 17.8H9v7.6h1.4v-7.6h1.4v-1.4H7.6zM18.8 18.6c-.4 0-.8.4-1.2.8v-3h-1.2v8.8h1.2v-.6c.4.4.8.8 1.2.8s.8-.2 1-.8c0-.2.2-.8.2-1.4v-2.6c0-.6 0-1-.2-1.4-.2-.2-.4-.6-1-.6zm0 4.8c0 .6-.2.8-.6.8-.2 0-.4 0-.6-.2v-4c.2-.2.4-.2.6-.2.4 0 .6.4.6 1v2.6zM22.6 18.6c-.6 0-1 .2-1.4.6-.2.4-.4.8-.4 1.6v2.4c0 .8.2 1.2.4 1.6.4.4.8.6 1.4.6s1.2-.2 1.4-.8c.2-.2.2-.4.2-.8v-1H23v.8c0 .4-.2.4-.6.4s-.6-.4-.6-1v-1.2h2.4v-1.4c0-.8-.2-1.2-.4-1.6 0 .2-.6-.2-1.2-.2zm.6 2.6H22v-.6c0-.6.2-1 .6-1s.6.4.6 1v.6z"/>
<path d="M0 0v32h32V0H0zm18.6 6.2h1.2v5.4c0 .2 0 .4.2.4s.4-.2.8-.6V6.2H22v6.6h-1.2v-.6c-.4.6-1 .8-1.4.8s-.6-.2-.8-.4c0-.2-.2-.6-.2-1V6.2zM14 8.4c0-.6 0-1.2.4-1.6s.8-.6 1.4-.6c.6 0 1 .2 1.4.6.2.4.4.8.4 1.6v2.4c0 .8-.2 1.2-.4 1.6-.4.4-.8.6-1.4.6s-1-.2-1.4-.6c-.4-.4-.4-.8-.4-1.6V8.4zM10.6 4l1 3.6 1-3.6H14l-1.6 5.4V13H11V9.4c-.2-.8-.4-1.6-.8-3-.4-.8-.6-1.6-1-2.4h1.4zm15 21.8c-.2 1-1.2 1.8-2.2 2-2.4.2-5 .2-7.4.2s-5 0-7.4-.2c-1-.2-2-.8-2.2-2C6 24.2 6 22.6 6 21c0-1.4 0-3 .4-4.6.2-1 1.2-1.8 2.2-2 2.4-.2 5-.2 7.4-.2s5 0 7.4.2c1 .2 2 .8 2.2 2 .4 1.6.4 3.2.4 4.6 0 1.6 0 3.2-.4 4.8z"/></symbol>
<symbol id="icon-facebook" viewBox="0 0 32 32"><path fill="#979797" style="fill:var(--color1, #979797)" d="M0 .104v31.793h31.997V.104H0zm23.017 4.149c.232-.005.474.003.725.019.919.001 1.879.084 2.832.167l-.103 3.765h-2.558c-1.199-.026-1.633.436-1.672 1.781v2.957h4.333l-.172 4.032H22.24V28.2h-4.228V16.974h-2.935v-4.032h2.935V9.48c0-2.496 1.062-4.085 3.154-4.89.537-.21 1.154-.323 1.851-.338z"/></symbol>
<symbol id="icon-twiter" viewBox="0 0 32 32"><path fill="#979797" style="fill:var(--color1, #979797)" d="M30.717 0H1.277C.569 0-.003.572-.003 1.28v29.44c0 .708.572 1.28 1.28 1.28h29.44c.708 0 1.28-.572 1.28-1.28V1.28c0-.708-.572-1.28-1.28-1.28zm-6.108 11.588c.012.188.012.384.012.576 0 5.872-4.472 12.636-12.644 12.636a12.6 12.6 0 0 1-6.824-1.992c.36.04.704.056 1.072.056 2.08 0 3.992-.704 5.516-1.896a4.444 4.444 0 0 1-4.152-3.08c.684.1 1.3.1 2.004-.08a4.438 4.438 0 0 1-3.556-4.36v-.056c.588.332 1.28.536 2.004.564a4.44 4.44 0 0 1-1.98-3.696c0-.828.216-1.584.604-2.24a12.622 12.622 0 0 0 9.16 4.644c-.628-3.02 1.628-5.464 4.34-5.464 1.28 0 2.432.536 3.244 1.4a8.776 8.776 0 0 0 2.82-1.068 4.422 4.422 0 0 1-1.952 2.444 8.786 8.786 0 0 0 2.56-.692 9.31 9.31 0 0 1-2.228 2.304z"/></symbol>
<symbol id="icon-google" viewBox="0 0 32 32"><path fill="#979797" style="fill:var(--color1, #979797)" d="M30.717 0H1.277C.569 0-.003.572-.003 1.28v29.44c0 .708.572 1.28 1.28 1.28h29.44c.708 0 1.28-.572 1.28-1.28V1.28c0-.708-.572-1.28-1.28-1.28zm-13.26 20.432c-1.756 2.472-5.284 3.192-8.036 2.132-2.76-1.052-4.72-3.968-4.484-6.94.06-3.636 3.408-6.824 7.044-6.7 1.744-.08 3.384.676 4.72 1.744a24.504 24.504 0 0 1-1.792 1.852c-1.604-1.108-3.888-1.424-5.492-.144-2.296 1.588-2.4 5.336-.192 7.044 2.148 1.948 6.208.98 6.804-2.004-1.344-.02-2.696 0-4.04-.044-.004-.804-.008-1.604-.004-2.408 2.248-.008 4.5-.012 6.752.008.132 1.892-.12 3.9-1.28 5.46zm9.7-3.452c-.672.008-1.344.012-2.016.016-.008.672-.012 1.344-.012 2.016h-2.012c-.008-.672-.008-1.34-.012-2.012-.672-.008-1.344-.012-2.016-.02v-2.004c.672-.008 1.344-.012 2.016-.012.004-.672.012-1.344.016-2.016h2.008l.012 2.016c.672.008 1.344.008 2.016.012v2.004z"/></symbol></defs></svg>